<svg xmlns="http://www.w3.org/2000/svg" viewBox="0 0 100 100"><defs><linearGradient id="bg" x1="0" y1="1" x2="1" y2="0"><stop offset="0" stop-color="#5a36f2"/><stop offset="1" stop-color="#12b8a0"/></linearGradient><clipPath id="r"><rect width="100" height="100" rx="24"/></clipPath></defs><g clip-path="url(#r)"><rect width="100" height="100" fill="url(#bg)"/><g transform="translate(-6 -2) scale(1.12)"><path d="M21 46C17 66 19 84 29 93h42c10-9 12-27 8-47C75 30 64 23 50 23S25 30 21 46z" fill="#a78bfa"></path><path d="M24 78c1 7 3 11 6 15h9c-6-4-12-9-15-15zM76 78c-1 7-3 11-6 15h-9c6-4 12-9 15-15z" fill="#f9a8d4"></path><path d="M20 100c2-12 13-19 30-19s28 7 30 19z" fill="#5a36f2"></path><path d="M33 84c4 5 10 8 17 8s13-3 17-8c-4-2-10-3-17-3s-13 1-17 3z" fill="#7c5cff"></path><path d="M44 88v8M56 88v8" stroke="#fff" stroke-width="1.6" stroke-linecap="round"></path><circle cx="44" cy="96.5" r="1.4" fill="#fff"></circle><circle cx="56" cy="96.5" r="1.4" fill="#fff"></circle><path d="M44 72h12v10c-3 2-9 2-12 0z" fill="#f4c3ad"></path><path d="M28 51c0 16 10 26 22 27 12-1 22-11 22-27 0-13-9-21-22-21s-22 8-22 21z" fill="#ffe3d3"></path><g><ellipse cx="39.5" cy="57.5" rx="5.6" ry="6.8" fill="#fff"></ellipse><ellipse cx="39.8" cy="58.3" rx="4.8" ry="6" fill="#6d4dff"></ellipse><ellipse cx="39.8" cy="61" rx="4" ry="3.2" fill="#9b85ff"></ellipse><ellipse cx="39.8" cy="58.2" rx="2.4" ry="3.2" fill="#2a1a78"></ellipse><circle cx="38" cy="55.6" r="1.9" fill="#fff"></circle><circle cx="41.6" cy="61.2" r="0.9" fill="#fff"></circle><path d="M33 54.4C35 50.4 42 49.2 46.3 52.9" fill="none" stroke="#2b1a4d" stroke-width="2.3" stroke-linecap="round"></path><path d="M33 54.4l-2-0.4" stroke="#2b1a4d" stroke-width="1.6" stroke-linecap="round"></path><ellipse cx="60.5" cy="57.5" rx="5.6" ry="6.8" fill="#fff"></ellipse><ellipse cx="60.2" cy="58.3" rx="4.8" ry="6" fill="#6d4dff"></ellipse><ellipse cx="60.2" cy="61" rx="4" ry="3.2" fill="#9b85ff"></ellipse><ellipse cx="60.2" cy="58.2" rx="2.4" ry="3.2" fill="#2a1a78"></ellipse><circle cx="58.4" cy="55.6" r="1.9" fill="#fff"></circle><circle cx="62" cy="61.2" r="0.9" fill="#fff"></circle><path d="M67 54.4C65 50.4 58 49.2 53.7 52.9" fill="none" stroke="#2b1a4d" stroke-width="2.3" stroke-linecap="round"></path><path d="M67 54.4l2-0.4" stroke="#2b1a4d" stroke-width="1.6" stroke-linecap="round"></path></g><path d="M35 46.8q4-2.2 8-0.6M57 46.2q4-1.6 8 0.6" fill="none" stroke="#8b6fd6" stroke-width="1.2" stroke-linecap="round"></path><ellipse cx="33.5" cy="65.5" rx="4" ry="2.1" fill="#ff8fb0" opacity="0.55"></ellipse><ellipse cx="66.5" cy="65.5" rx="4" ry="2.1" fill="#ff8fb0" opacity="0.55"></ellipse><path d="M49.6 63.4l0.8 0.8" stroke="#e0a48c" stroke-width="1.2" stroke-linecap="round"></path><path d="M46.6 68q1.7 1.8 3.4 0.2 1.7 1.6 3.4-0.2" fill="none" stroke="#b0506a" stroke-width="1.3" stroke-linecap="round" stroke-linejoin="round"></path><path d="M25 54c-3-17 8-29 25-29s28 12 25 29l-4-7-3 5-4-10-4 7-5-10-5 8-5-8-4 10-4-5-3 6-4-5z" fill="#c4b5fd"></path><path d="M27 45c-5 11-4 25 2 34 1-10 2-19 6-27zM73 45c5 11 4 25-2 34-1-10-2-19-6-27z" fill="#b8a4fb"></path><path d="M29 79c-1-3-1-6 0-9 1 3 2 6 4 8zM71 79c1-3 1-6 0-9-1 3-2 6-4 8z" fill="#f9a8d4"></path><path d="M37 32q8-4 17-2" fill="none" stroke="#ede9fe" stroke-width="2" stroke-linecap="round" opacity="0.9"></path><path d="M68 39.5l1.5 3 3.3.5-2.4 2.3.6 3.3-3-1.6-3 1.6.6-3.3-2.4-2.3 3.3-.5z" fill="#ffd166" stroke="#f0a20b" stroke-width="0.6" stroke-linejoin="round"></path><g transform="rotate(-8 50 20)"><path d="M33 21v7c10 5 24 5 34 0v-7z" fill="#2c2766"></path><path d="M50 8l31 10-31 10-31-10z" fill="#1f1b4d"></path><path d="M50 8l31 10-31 10-31-10z" fill="none" stroke="#3b3480" stroke-width="1"></path><circle cx="50" cy="18" r="1.8" fill="#ff6a3d"></circle><path d="M50 18l25 3v9" fill="none" stroke="#ff6a3d" stroke-width="1.6" stroke-linecap="round" stroke-linejoin="round"></path><path d="M73.2 29.5h3.6l.8 5.5h-5.2z" fill="#ff6a3d"></path></g></g></g></svg>